<svg width="104" height="40" viewBox="0 0 104 40" fill="none" xmlns="http://www.w3.org/2000/svg">
<g filter="url(#filter0_d_25_937)">
<path fill-rule="evenodd" clip-rule="evenodd" d="M85.6856 6.49013L84.9726 4.69384L84.9083 4.53195L84.1333 2.57948L83.8161 1.78026C83.5113 1.01245 82.4246 1.01245 82.1198 1.78026C81.8151 2.54807 80.7283 2.54807 80.4236 1.78026C80.1188 1.01244 79.032 1.01247 78.7273 1.78028C78.4225 2.54811 77.3357 2.54813 77.0309 1.78031C76.7262 1.01248 75.6394 1.01248 75.3346 1.78031L75.0174 2.57954L74.2424 4.53197L74.1782 4.69387L73.6961 5.90832C75.2193 4.91542 77.0984 4.31692 79.2917 4.31692C81.8853 4.31692 84.0396 5.15383 85.6856 6.49013Z" fill="#66BB6A"/>
<path d="M85.5652 25.2313C82.6674 29.9481 75.8124 29.9481 72.9146 25.2312L68.0369 17.2917C64.9981 12.3454 68.557 5.98209 74.3622 5.98209L84.1176 5.98209C89.9228 5.98209 93.4817 12.3454 90.4429 17.2918L85.5652 25.2313Z" stroke="#F36E67" stroke-width="3.5"/>
<mask id="path-3-outside-1_25_937" maskUnits="userSpaceOnUse" x="4" y="0.204346" width="58" height="32" fill="black">
<rect fill="white" x="4" y="0.204346" width="58" height="32"/>
<path fill-rule="evenodd" clip-rule="evenodd" d="M34.9885 17.4361H37.0436L44.1041 6.38115L51.1646 17.4361H53.2198L46.093 6.28095H53.3855V4.54422H45.0986V1.20435H43.1097V4.54422H34.8227V6.28095H42.0821L34.9885 17.4361ZM58.6892 18.0373H60.678V2.54029H58.6892V9.11985H51.7944V10.8566H58.6892V18.0373ZM34.9885 25.4184C34.9885 29.1591 37.2757 30.7956 41.1208 30.7956H55.0429C58.8881 30.7956 61.1753 29.1591 61.1753 25.4184C61.1753 21.6778 58.8881 20.0412 55.0429 20.0412H41.1208C37.2757 20.0412 34.9885 21.6778 34.9885 25.4184ZM36.9773 25.4184C36.9773 22.9803 38.1707 21.778 41.1208 21.778H55.0429C57.9931 21.778 59.1864 22.9803 59.1864 25.4184C59.1864 27.8565 57.9931 29.0589 55.0429 29.0589H41.1208C38.1707 29.0589 36.9773 27.8565 36.9773 25.4184ZM5 16.7682H6.98887L9.34237 4.27703L11.9611 16.7682H13.9499L16.5686 4.27703L18.9221 16.7682H20.911L17.9277 2.54029H15.2095L12.9555 13.9961L10.7014 2.54029H7.98331L5 16.7682ZM28.8665 17.3693H30.8553V2.54029H28.8665V8.78586H24.5572V2.54029H22.5684V17.3693H24.5572V10.5226H28.8665V17.3693ZM5.66296 30.7956H30.8553V19.3733H5.66296V30.7956ZM7.65183 29.0589V21.11H28.8665V29.0589H7.65183Z"/>
</mask>
<path fill-rule="evenodd" clip-rule="evenodd" d="M34.9885 17.4361H37.0436L44.1041 6.38115L51.1646 17.4361H53.2198L46.093 6.28095H53.3855V4.54422H45.0986V1.20435H43.1097V4.54422H34.8227V6.28095H42.0821L34.9885 17.4361ZM58.6892 18.0373H60.678V2.54029H58.6892V9.11985H51.7944V10.8566H58.6892V18.0373ZM34.9885 25.4184C34.9885 29.1591 37.2757 30.7956 41.1208 30.7956H55.0429C58.8881 30.7956 61.1753 29.1591 61.1753 25.4184C61.1753 21.6778 58.8881 20.0412 55.0429 20.0412H41.1208C37.2757 20.0412 34.9885 21.6778 34.9885 25.4184ZM36.9773 25.4184C36.9773 22.9803 38.1707 21.778 41.1208 21.778H55.0429C57.9931 21.778 59.1864 22.9803 59.1864 25.4184C59.1864 27.8565 57.9931 29.0589 55.0429 29.0589H41.1208C38.1707 29.0589 36.9773 27.8565 36.9773 25.4184ZM5 16.7682H6.98887L9.34237 4.27703L11.9611 16.7682H13.9499L16.5686 4.27703L18.9221 16.7682H20.911L17.9277 2.54029H15.2095L12.9555 13.9961L10.7014 2.54029H7.98331L5 16.7682ZM28.8665 17.3693H30.8553V2.54029H28.8665V8.78586H24.5572V2.54029H22.5684V17.3693H24.5572V10.5226H28.8665V17.3693ZM5.66296 30.7956H30.8553V19.3733H5.66296V30.7956ZM7.65183 29.0589V21.11H28.8665V29.0589H7.65183Z" fill="black"/>
<path d="M37.0436 17.4361V17.9361H37.3176L37.465 17.7053L37.0436 17.4361ZM34.9885 17.4361L34.5665 17.1678L34.078 17.9361H34.9885V17.4361ZM44.1041 6.38115L44.5255 6.11202L44.1041 5.45223L43.6827 6.11202L44.1041 6.38115ZM51.1646 17.4361L50.7432 17.7053L50.8907 17.9361H51.1646V17.4361ZM53.2198 17.4361V17.9361H54.1325L53.6411 17.1669L53.2198 17.4361ZM46.093 6.28095V5.78095H45.1802L45.6716 6.55015L46.093 6.28095ZM53.3855 6.28095V6.78095H53.8855V6.28095H53.3855ZM53.3855 4.54422H53.8855V4.04422H53.3855V4.54422ZM45.0986 4.54422H44.5986V5.04422H45.0986V4.54422ZM45.0986 1.20435H45.5986V0.704346H45.0986V1.20435ZM43.1097 1.20435V0.704346H42.6097V1.20435H43.1097ZM43.1097 4.54422V5.04422H43.6097V4.54422H43.1097ZM34.8227 4.54422V4.04422H34.3227V4.54422H34.8227ZM34.8227 6.28095H34.3227V6.78095H34.8227V6.28095ZM42.0821 6.28095L42.504 6.54925L42.9926 5.78095H42.0821V6.28095ZM60.678 18.0373V18.5373H61.178V18.0373H60.678ZM58.6892 18.0373H58.1892V18.5373H58.6892V18.0373ZM60.678 2.54029H61.178V2.04029H60.678V2.54029ZM58.6892 2.54029V2.04029H58.1892V2.54029H58.6892ZM58.6892 9.11985V9.61985H59.1892V9.11985H58.6892ZM51.7944 9.11985V8.61985H51.2944V9.11985H51.7944ZM51.7944 10.8566H51.2944V11.3566H51.7944V10.8566ZM58.6892 10.8566H59.1892V10.3566H58.6892V10.8566ZM6.98887 16.7682V17.2682H7.40346L7.48023 16.8607L6.98887 16.7682ZM5 16.7682L4.51064 16.6655L4.38429 17.2682H5V16.7682ZM9.34237 4.27703L9.83173 4.17444L8.85101 4.18445L9.34237 4.27703ZM11.9611 16.7682L11.4717 16.8707L11.555 17.2682H11.9611V16.7682ZM13.9499 16.7682V17.2682H14.356L14.4393 16.8707L13.9499 16.7682ZM16.5686 4.27703L17.06 4.18445L16.0792 4.17444L16.5686 4.27703ZM18.9221 16.7682L18.4307 16.8607L18.5075 17.2682H18.9221V16.7682ZM20.911 16.7682V17.2682H21.5267L21.4003 16.6655L20.911 16.7682ZM17.9277 2.54029L18.417 2.43769L18.3337 2.04029H17.9277V2.54029ZM15.2095 2.54029V2.04029H14.7983L14.7189 2.44376L15.2095 2.54029ZM12.9555 13.9961L12.4649 14.0926H13.4461L12.9555 13.9961ZM10.7014 2.54029L11.192 2.44376L11.1126 2.04029H10.7014V2.54029ZM7.98331 2.54029V2.04029H7.57727L7.49395 2.43769L7.98331 2.54029ZM30.8553 17.3693V17.8693H31.3553V17.3693H30.8553ZM28.8665 17.3693H28.3665V17.8693H28.8665V17.3693ZM30.8553 2.54029H31.3553V2.04029H30.8553V2.54029ZM28.8665 2.54029V2.04029H28.3665V2.54029H28.8665ZM28.8665 8.78586V9.28586H29.3665V8.78586H28.8665ZM24.5572 8.78586H24.0572V9.28586H24.5572V8.78586ZM24.5572 2.54029H25.0572V2.04029H24.5572V2.54029ZM22.5684 2.54029V2.04029H22.0684V2.54029H22.5684ZM22.5684 17.3693H22.0684V17.8693H22.5684V17.3693ZM24.5572 17.3693V17.8693H25.0572V17.3693H24.5572ZM24.5572 10.5226V10.0226H24.0572V10.5226H24.5572ZM28.8665 10.5226H29.3665V10.0226H28.8665V10.5226ZM30.8553 30.7956V31.2956H31.3553V30.7956H30.8553ZM5.66296 30.7956H5.16296V31.2956H5.66296V30.7956ZM30.8553 19.3733H31.3553V18.8733H30.8553V19.3733ZM5.66296 19.3733V18.8733H5.16296V19.3733H5.66296ZM7.65183 21.11V20.61H7.15183V21.11H7.65183ZM7.65183 29.0589H7.15183V29.5589H7.65183V29.0589ZM28.8665 21.11H29.3665V20.61H28.8665V21.11ZM28.8665 29.0589V29.5589H29.3665V29.0589H28.8665ZM37.0436 16.9361H34.9885V17.9361H37.0436V16.9361ZM43.6827 6.11202L36.6222 17.167L37.465 17.7053L44.5255 6.65028L43.6827 6.11202ZM51.586 17.167L44.5255 6.11202L43.6827 6.65028L50.7432 17.7053L51.586 17.167ZM53.2198 16.9361H51.1646V17.9361H53.2198V16.9361ZM45.6716 6.55015L52.7984 17.7053L53.6411 17.1669L46.5143 6.01176L45.6716 6.55015ZM53.3855 5.78095H46.093V6.78095H53.3855V5.78095ZM52.8855 4.54422V6.28095H53.8855V4.54422H52.8855ZM45.0986 5.04422H53.3855V4.04422H45.0986V5.04422ZM44.5986 1.20435V4.54422H45.5986V1.20435H44.5986ZM43.1097 1.70435H45.0986V0.704346H43.1097V1.70435ZM43.6097 4.54422V1.20435H42.6097V4.54422H43.6097ZM34.8227 5.04422H43.1097V4.04422H34.8227V5.04422ZM35.3227 6.28095V4.54422H34.3227V6.28095H35.3227ZM42.0821 5.78095H34.8227V6.78095H42.0821V5.78095ZM35.4104 17.7044L42.504 6.54925L41.6602 6.01265L34.5665 17.1678L35.4104 17.7044ZM60.678 17.5373H58.6892V18.5373H60.678V17.5373ZM60.178 2.54029V18.0373H61.178V2.54029H60.178ZM58.6892 3.04029H60.678V2.04029H58.6892V3.04029ZM59.1892 9.11985V2.54029H58.1892V9.11985H59.1892ZM51.7944 9.61985H58.6892V8.61985H51.7944V9.61985ZM52.2944 10.8566V9.11985H51.2944V10.8566H52.2944ZM58.6892 10.3566H51.7944V11.3566H58.6892V10.3566ZM59.1892 18.0373V10.8566H58.1892V18.0373H59.1892ZM41.1208 30.2956C39.2576 30.2956 37.8593 29.8975 36.9327 29.1256C36.0232 28.3679 35.4885 27.1825 35.4885 25.4184H34.4885C34.4885 27.395 35.0973 28.8982 36.2927 29.8939C37.471 30.8755 39.1389 31.2956 41.1208 31.2956V30.2956ZM55.0429 30.2956H41.1208V31.2956H55.0429V30.2956ZM60.6753 25.4184C60.6753 27.1825 60.1406 28.3679 59.231 29.1256C58.3044 29.8975 56.9061 30.2956 55.0429 30.2956V31.2956C57.0249 31.2956 58.6927 30.8755 59.871 29.8939C61.0664 28.8982 61.6753 27.395 61.6753 25.4184H60.6753ZM55.0429 20.5412C56.9061 20.5412 58.3044 20.9394 59.231 21.7113C60.1406 22.4689 60.6753 23.6544 60.6753 25.4184H61.6753C61.6753 23.4418 61.0664 21.9387 59.871 20.9429C58.6927 19.9613 57.0249 19.5412 55.0429 19.5412V20.5412ZM41.1208 20.5412H55.0429V19.5412H41.1208V20.5412ZM35.4885 25.4184C35.4885 23.6544 36.0232 22.4689 36.9327 21.7113C37.8593 20.9394 39.2576 20.5412 41.1208 20.5412V19.5412C39.1389 19.5412 37.471 19.9613 36.2927 20.9429C35.0973 21.9387 34.4885 23.4418 34.4885 25.4184H35.4885ZM41.1208 21.278C39.5929 21.278 38.4077 21.5868 37.6068 22.3136C36.7946 23.0506 36.4773 24.1246 36.4773 25.4184H37.4773C37.4773 24.2741 37.7567 23.5279 38.2788 23.0542C38.812 22.5703 39.6986 22.278 41.1208 22.278V21.278ZM55.0429 21.278H41.1208V22.278H55.0429V21.278ZM59.6864 25.4184C59.6864 24.1246 59.3691 23.0506 58.557 22.3136C57.756 21.5868 56.5709 21.278 55.0429 21.278V22.278C56.4651 22.278 57.3517 22.5703 57.885 23.0542C58.407 23.5279 58.6864 24.2741 58.6864 25.4184H59.6864ZM55.0429 29.5589C56.5709 29.5589 57.756 29.25 58.557 28.5232C59.3691 27.7862 59.6864 26.7123 59.6864 25.4184H58.6864C58.6864 26.5627 58.407 27.309 57.885 27.7827C57.3517 28.2666 56.4651 28.5589 55.0429 28.5589V29.5589ZM41.1208 29.5589H55.0429V28.5589H41.1208V29.5589ZM36.4773 25.4184C36.4773 26.7123 36.7946 27.7862 37.6068 28.5232C38.4077 29.25 39.5929 29.5589 41.1208 29.5589V28.5589C39.6986 28.5589 38.812 28.2666 38.2788 27.7827C37.7567 27.309 37.4773 26.5627 37.4773 25.4184H36.4773ZM6.98887 16.2682H5V17.2682H6.98887V16.2682ZM8.85101 4.18445L6.49752 16.6756L7.48023 16.8607L9.83372 4.36961L8.85101 4.18445ZM12.4504 16.6656L9.83173 4.17444L8.85301 4.37962L11.4717 16.8707L12.4504 16.6656ZM13.9499 16.2682H11.9611V17.2682H13.9499V16.2682ZM16.0792 4.17444L13.4606 16.6656L14.4393 16.8707L17.058 4.37962L16.0792 4.17444ZM19.4135 16.6756L17.06 4.18445L16.0772 4.36961L18.4307 16.8607L19.4135 16.6756ZM20.911 16.2682H18.9221V17.2682H20.911V16.2682ZM17.4383 2.6429L20.4216 16.8708L21.4003 16.6655L18.417 2.43769L17.4383 2.6429ZM15.2095 3.04029H17.9277V2.04029H15.2095V3.04029ZM13.4461 14.0926L15.7001 2.63682L14.7189 2.44376L12.4649 13.8995L13.4461 14.0926ZM10.2108 2.63682L12.4649 14.0926L13.4461 13.8995L11.192 2.44376L10.2108 2.63682ZM7.98331 3.04029H10.7014V2.04029H7.98331V3.04029ZM5.48936 16.8708L8.47267 2.6429L7.49395 2.43769L4.51064 16.6655L5.48936 16.8708ZM30.8553 16.8693H28.8665V17.8693H30.8553V16.8693ZM30.3553 2.54029V17.3693H31.3553V2.54029H30.3553ZM28.8665 3.04029H30.8553V2.04029H28.8665V3.04029ZM29.3665 8.78586V2.54029H28.3665V8.78586H29.3665ZM24.5572 9.28586H28.8665V8.28586H24.5572V9.28586ZM24.0572 2.54029V8.78586H25.0572V2.54029H24.0572ZM22.5684 3.04029H24.5572V2.04029H22.5684V3.04029ZM23.0684 17.3693V2.54029H22.0684V17.3693H23.0684ZM24.5572 16.8693H22.5684V17.8693H24.5572V16.8693ZM24.0572 10.5226V17.3693H25.0572V10.5226H24.0572ZM28.8665 10.0226H24.5572V11.0226H28.8665V10.0226ZM29.3665 17.3693V10.5226H28.3665V17.3693H29.3665ZM30.8553 30.2956H5.66296V31.2956H30.8553V30.2956ZM30.3553 19.3733V30.7956H31.3553V19.3733H30.3553ZM5.66296 19.8733H30.8553V18.8733H5.66296V19.8733ZM6.16296 30.7956V19.3733H5.16296V30.7956H6.16296ZM7.15183 21.11V29.0589H8.15183V21.11H7.15183ZM28.8665 20.61H7.65183V21.61H28.8665V20.61ZM29.3665 29.0589V21.11H28.3665V29.0589H29.3665ZM7.65183 29.5589H28.8665V28.5589H7.65183V29.5589Z" fill="black" mask="url(#path-3-outside-1_25_937)"/>
<mask id="path-5-outside-2_25_937" maskUnits="userSpaceOnUse" x="96.0111" y="1.42578" width="4" height="30" fill="black">
<rect fill="white" x="96.0111" y="1.42578" width="4" height="30"/>
<path fill-rule="evenodd" clip-rule="evenodd" d="M99 30.6811H97.0111V2.42578H99V30.6811Z"/>
</mask>
<path fill-rule="evenodd" clip-rule="evenodd" d="M99 30.6811H97.0111V2.42578H99V30.6811Z" fill="black"/>
<path d="M97.0111 30.6811H96.5111V31.1811H97.0111V30.6811ZM99 30.6811V31.1811H99.5V30.6811H99ZM97.0111 2.42578V1.92578H96.5111V2.42578H97.0111ZM99 2.42578H99.5V1.92578H99V2.42578ZM97.0111 31.1811H99V30.1811H97.0111V31.1811ZM96.5111 2.42578V30.6811H97.5111V2.42578H96.5111ZM99 1.92578H97.0111V2.92578H99V1.92578ZM99.5 30.6811V2.42578H98.5V30.6811H99.5Z" fill="black" mask="url(#path-5-outside-2_25_937)"/>
</g>
<defs>
<filter id="filter0_d_25_937" x="0.384277" y="0.704346" width="103.116" height="38.5913" filterUnits="userSpaceOnUse" color-interpolation-filters="sRGB">
<feFlood flood-opacity="0" result="BackgroundImageFix"/>
<feColorMatrix in="SourceAlpha" type="matrix" values="0 0 0 0 0 0 0 0 0 0 0 0 0 0 0 0 0 0 127 0" result="hardAlpha"/>
<feOffset dy="4"/>
<feGaussianBlur stdDeviation="2"/>
<feComposite in2="hardAlpha" operator="out"/>
<feColorMatrix type="matrix" values="0 0 0 0 0 0 0 0 0 0 0 0 0 0 0 0 0 0 0.25 0"/>
<feBlend mode="normal" in2="BackgroundImageFix" result="effect1_dropShadow_25_937"/>
<feBlend mode="normal" in="SourceGraphic" in2="effect1_dropShadow_25_937" result="shape"/>
</filter>
</defs>
</svg>
