<svg width="96" height="32" viewBox="0 0 96 32" fill="none" xmlns="http://www.w3.org/2000/svg">
<path fill-rule="evenodd" clip-rule="evenodd" d="M81.6479 6.26265L80.9624 4.51179L80.8963 4.343L80.1232 2.36822L79.8161 1.58386C79.5139 0.812176 78.4219 0.812176 78.1198 1.58386C77.8177 2.35554 76.7257 2.35553 76.4235 1.58385C76.1214 0.812165 75.0294 0.812189 74.7272 1.58388C74.4251 2.35557 73.333 2.3556 73.0309 1.58391C72.7288 0.812207 71.6367 0.812207 71.3346 1.58391L71.0275 2.36828L70.2543 4.34303L70.1883 4.51183L69.7204 5.70681C71.2462 4.73744 73.1166 4.15555 75.2917 4.15555C77.8555 4.15555 79.9962 4.96405 81.6479 6.26265Z" fill="#66BB6A"/>
<path d="M81.3458 25.251C78.5434 29.8756 71.9364 29.8756 69.134 25.251L64.2562 17.2018C61.2837 12.2966 64.7951 6.06958 70.3622 6.06958L80.1176 6.06958C85.6847 6.06958 89.196 12.2966 86.2235 17.2018L81.3458 25.251Z" stroke="#F36E67" stroke-width="4"/>
<mask id="path-3-outside-1_25_937" maskUnits="userSpaceOnUse" x="0" y="0" width="58" height="32" fill="black">
<rect fill="white" width="58" height="32"/>
<path fill-rule="evenodd" clip-rule="evenodd" d="M30.9885 17.456H33.0436L40.1041 6.24831L47.1646 17.456H49.2198L42.093 6.14673H49.3855V4.386H41.0986V1H39.1097V4.386H30.8227V6.14673H38.0821L30.9885 17.456ZM54.6892 18.0655H56.678V2.3544H54.6892V9.02483H47.7944V10.7856H54.6892V18.0655ZM30.9885 25.5485C30.9885 29.3409 33.2757 31 37.1208 31H51.0429C54.8881 31 57.1753 29.3409 57.1753 25.5485C57.1753 21.7562 54.8881 20.0971 51.0429 20.0971H37.1208C33.2757 20.0971 30.9885 21.7562 30.9885 25.5485ZM32.9773 25.5485C32.9773 23.0768 34.1707 21.8578 37.1208 21.8578H51.0429C53.9931 21.8578 55.1864 23.0768 55.1864 25.5485C55.1864 28.0203 53.9931 29.2393 51.0429 29.2393H37.1208C34.1707 29.2393 32.9773 28.0203 32.9773 25.5485ZM1 16.7788H2.98887L5.34237 4.11512L7.96105 16.7788H9.94992L12.5686 4.11512L14.9221 16.7788H16.911L13.9277 2.3544H11.2095L8.95549 13.9684L6.70143 2.3544H3.98331L1 16.7788ZM24.8665 17.3883H26.8553V2.3544H24.8665V8.68623H20.5572V2.3544H18.5684V17.3883H20.5572V10.447H24.8665V17.3883ZM1.66296 31H26.8553V19.4199H1.66296V31ZM3.65183 29.2393V21.1806H24.8665V29.2393H3.65183Z"/>
</mask>
<path fill-rule="evenodd" clip-rule="evenodd" d="M30.9885 17.456H33.0436L40.1041 6.24831L47.1646 17.456H49.2198L42.093 6.14673H49.3855V4.386H41.0986V1H39.1097V4.386H30.8227V6.14673H38.0821L30.9885 17.456ZM54.6892 18.0655H56.678V2.3544H54.6892V9.02483H47.7944V10.7856H54.6892V18.0655ZM30.9885 25.5485C30.9885 29.3409 33.2757 31 37.1208 31H51.0429C54.8881 31 57.1753 29.3409 57.1753 25.5485C57.1753 21.7562 54.8881 20.0971 51.0429 20.0971H37.1208C33.2757 20.0971 30.9885 21.7562 30.9885 25.5485ZM32.9773 25.5485C32.9773 23.0768 34.1707 21.8578 37.1208 21.8578H51.0429C53.9931 21.8578 55.1864 23.0768 55.1864 25.5485C55.1864 28.0203 53.9931 29.2393 51.0429 29.2393H37.1208C34.1707 29.2393 32.9773 28.0203 32.9773 25.5485ZM1 16.7788H2.98887L5.34237 4.11512L7.96105 16.7788H9.94992L12.5686 4.11512L14.9221 16.7788H16.911L13.9277 2.3544H11.2095L8.95549 13.9684L6.70143 2.3544H3.98331L1 16.7788ZM24.8665 17.3883H26.8553V2.3544H24.8665V8.68623H20.5572V2.3544H18.5684V17.3883H20.5572V10.447H24.8665V17.3883ZM1.66296 31H26.8553V19.4199H1.66296V31ZM3.65183 29.2393V21.1806H24.8665V29.2393H3.65183Z" fill="black"/>
<path d="M33.0436 17.456V17.956H33.3196L33.4667 17.7225L33.0436 17.456ZM30.9885 17.456L30.5649 17.1903L30.0846 17.956H30.9885V17.456ZM40.1041 6.24831L40.5272 5.9818L40.1041 5.31025L39.6811 5.9818L40.1041 6.24831ZM47.1646 17.456L46.7416 17.7225L46.8886 17.956H47.1646V17.456ZM49.2198 17.456V17.956H50.1259L49.6428 17.1894L49.2198 17.456ZM42.093 6.14673V5.64673H41.1869L41.67 6.4133L42.093 6.14673ZM49.3855 6.14673V6.64673H49.8855V6.14673H49.3855ZM49.3855 4.386H49.8855V3.886H49.3855V4.386ZM41.0986 4.386H40.5986V4.886H41.0986V4.386ZM41.0986 1H41.5986V0.5H41.0986V1ZM39.1097 1V0.5H38.6097V1H39.1097ZM39.1097 4.386V4.886H39.6097V4.386H39.1097ZM30.8227 4.386V3.886H30.3227V4.386H30.8227ZM30.8227 6.14673H30.3227V6.64673H30.8227V6.14673ZM38.0821 6.14673L38.5057 6.41241L38.9859 5.64673H38.0821V6.14673ZM56.678 18.0655V18.5655H57.178V18.0655H56.678ZM54.6892 18.0655H54.1892V18.5655H54.6892V18.0655ZM56.678 2.3544H57.178V1.8544H56.678V2.3544ZM54.6892 2.3544V1.8544H54.1892V2.3544H54.6892ZM54.6892 9.02483V9.52483H55.1892V9.02483H54.6892ZM47.7944 9.02483V8.52483H47.2944V9.02483H47.7944ZM47.7944 10.7856H47.2944V11.2856H47.7944V10.7856ZM54.6892 10.7856H55.1892V10.2856H54.6892V10.7856ZM2.98887 16.7788V17.2788H3.40451L3.48045 16.8701L2.98887 16.7788ZM1 16.7788L0.510363 16.6775L0.386006 17.2788H1V16.7788ZM5.34237 4.11512L5.83201 4.01387L4.85079 4.02376L5.34237 4.11512ZM7.96105 16.7788L7.47141 16.88L7.55387 17.2788H7.96105V16.7788ZM9.94992 16.7788V17.2788H10.3571L10.4396 16.88L9.94992 16.7788ZM12.5686 4.11512L13.0602 4.02376L12.079 4.01387L12.5686 4.11512ZM14.9221 16.7788L14.4305 16.8701L14.5065 17.2788H14.9221V16.7788ZM16.911 16.7788V17.2788H17.525L17.4006 16.6775L16.911 16.7788ZM13.9277 2.3544L14.4173 2.25313L14.3348 1.8544H13.9277V2.3544ZM11.2095 2.3544V1.8544H10.7973L10.7187 2.25914L11.2095 2.3544ZM8.95549 13.9684L8.46464 14.0637H9.44633L8.95549 13.9684ZM6.70143 2.3544L7.19227 2.25914L7.11372 1.8544H6.70143V2.3544ZM3.98331 2.3544V1.8544H3.57614L3.49367 2.25313L3.98331 2.3544ZM26.8553 17.3883V17.8883H27.3553V17.3883H26.8553ZM24.8665 17.3883H24.3665V17.8883H24.8665V17.3883ZM26.8553 2.3544H27.3553V1.8544H26.8553V2.3544ZM24.8665 2.3544V1.8544H24.3665V2.3544H24.8665ZM24.8665 8.68623V9.18623H25.3665V8.68623H24.8665ZM20.5572 8.68623H20.0572V9.18623H20.5572V8.68623ZM20.5572 2.3544H21.0572V1.8544H20.5572V2.3544ZM18.5684 2.3544V1.8544H18.0684V2.3544H18.5684ZM18.5684 17.3883H18.0684V17.8883H18.5684V17.3883ZM20.5572 17.3883V17.8883H21.0572V17.3883H20.5572ZM20.5572 10.447V9.94695H20.0572V10.447H20.5572ZM24.8665 10.447H25.3665V9.94695H24.8665V10.447ZM26.8553 31V31.5H27.3553V31H26.8553ZM1.66296 31H1.16296V31.5H1.66296V31ZM26.8553 19.4199H27.3553V18.9199H26.8553V19.4199ZM1.66296 19.4199V18.9199H1.16296V19.4199H1.66296ZM3.65183 21.1806V20.6806H3.15183V21.1806H3.65183ZM3.65183 29.2393H3.15183V29.7393H3.65183V29.2393ZM24.8665 21.1806H25.3665V20.6806H24.8665V21.1806ZM24.8665 29.2393V29.7393H25.3665V29.2393H24.8665ZM33.0436 16.956H30.9885V17.956H33.0436V16.956ZM39.6811 5.9818L32.6206 17.1895L33.4667 17.7225L40.5272 6.51482L39.6811 5.9818ZM47.5877 17.1895L40.5272 5.9818L39.6811 6.51482L46.7416 17.7225L47.5877 17.1895ZM49.2198 16.956H47.1646V17.956H49.2198V16.956ZM41.67 6.4133L48.7968 17.7226L49.6428 17.1894L42.516 5.88016L41.67 6.4133ZM49.3855 5.64673H42.093V6.64673H49.3855V5.64673ZM48.8855 4.386V6.14673H49.8855V4.386H48.8855ZM41.0986 4.886H49.3855V3.886H41.0986V4.886ZM40.5986 1V4.386H41.5986V1H40.5986ZM39.1097 1.5H41.0986V0.5H39.1097V1.5ZM39.6097 4.386V1H38.6097V4.386H39.6097ZM30.8227 4.886H39.1097V3.886H30.8227V4.886ZM31.3227 6.14673V4.386H30.3227V6.14673H31.3227ZM38.0821 5.64673H30.8227V6.64673H38.0821V5.64673ZM31.412 17.7217L38.5057 6.41241L37.6585 5.88105L30.5649 17.1903L31.412 17.7217ZM56.678 17.5655H54.6892V18.5655H56.678V17.5655ZM56.178 2.3544V18.0655H57.178V2.3544H56.178ZM54.6892 2.8544H56.678V1.8544H54.6892V2.8544ZM55.1892 9.02483V2.3544H54.1892V9.02483H55.1892ZM47.7944 9.52483H54.6892V8.52483H47.7944V9.52483ZM48.2944 10.7856V9.02483H47.2944V10.7856H48.2944ZM54.6892 10.2856H47.7944V11.2856H54.6892V10.2856ZM55.1892 18.0655V10.7856H54.1892V18.0655H55.1892ZM37.1208 30.5C35.2589 30.5 33.8617 30.0968 32.9353 29.3144C32.0247 28.5453 31.4885 27.3407 31.4885 25.5485H30.4885C30.4885 27.5487 31.0959 29.0698 32.2901 30.0784C33.4686 31.0737 35.1375 31.5 37.1208 31.5V30.5ZM51.0429 30.5H37.1208V31.5H51.0429V30.5ZM56.6753 25.5485C56.6753 27.3407 56.1391 28.5453 55.2284 29.3144C54.302 30.0968 52.9048 30.5 51.0429 30.5V31.5C53.0262 31.5 54.6951 31.0737 55.8736 30.0784C57.0679 29.0698 57.6753 27.5487 57.6753 25.5485H56.6753ZM51.0429 20.5971C52.9048 20.5971 54.302 21.0003 55.2284 21.7827C56.1391 22.5518 56.6753 23.7564 56.6753 25.5485H57.6753C57.6753 23.5484 57.0679 22.0273 55.8736 21.0187C54.6951 20.0234 53.0262 19.5971 51.0429 19.5971V20.5971ZM37.1208 20.5971H51.0429V19.5971H37.1208V20.5971ZM31.4885 25.5485C31.4885 23.7564 32.0247 22.5518 32.9353 21.7827C33.8617 21.0003 35.2589 20.5971 37.1208 20.5971V19.5971C35.1375 19.5971 33.4686 20.0234 32.2901 21.0187C31.0959 22.0273 30.4885 23.5484 30.4885 25.5485H31.4885ZM37.1208 21.3578C35.5915 21.3578 34.4052 21.6714 33.6042 22.4083C32.7936 23.1541 32.4773 24.2397 32.4773 25.5485H33.4773C33.4773 24.3856 33.7577 23.6259 34.2813 23.1442C34.8145 22.6537 35.7 22.3578 37.1208 22.3578V21.3578ZM51.0429 21.3578H37.1208V22.3578H51.0429V21.3578ZM55.6864 25.5485C55.6864 24.2397 55.3701 23.1541 54.5595 22.4083C53.7585 21.6714 52.5722 21.3578 51.0429 21.3578V22.3578C52.4638 22.3578 53.3492 22.6537 53.8824 23.1442C54.406 23.6259 54.6864 24.3856 54.6864 25.5485H55.6864ZM51.0429 29.7393C52.5722 29.7393 53.7585 29.4257 54.5595 28.6888C55.3701 27.943 55.6864 26.8574 55.6864 25.5485H54.6864C54.6864 26.7115 54.406 27.4712 53.8824 27.9529C53.3492 28.4434 52.4638 28.7393 51.0429 28.7393V29.7393ZM37.1208 29.7393H51.0429V28.7393H37.1208V29.7393ZM32.4773 25.5485C32.4773 26.8574 32.7936 27.943 33.6042 28.6888C34.4052 29.4257 35.5915 29.7393 37.1208 29.7393V28.7393C35.7 28.7393 34.8145 28.4434 34.2813 27.9529C33.7577 27.4712 33.4773 26.7115 33.4773 25.5485H32.4773ZM2.98887 16.2788H1V17.2788H2.98887V16.2788ZM4.85079 4.02376L2.49729 16.6874L3.48045 16.8701L5.83395 4.20648L4.85079 4.02376ZM8.45069 16.6775L5.83201 4.01387L4.85273 4.21637L7.47141 16.88L8.45069 16.6775ZM9.94992 16.2788H7.96105V17.2788H9.94992V16.2788ZM12.079 4.01387L9.46028 16.6775L10.4396 16.88L13.0582 4.21637L12.079 4.01387ZM15.4137 16.6874L13.0602 4.02376L12.077 4.20648L14.4305 16.8701L15.4137 16.6874ZM16.911 16.2788H14.9221V17.2788H16.911V16.2788ZM13.438 2.45567L16.4213 16.88L17.4006 16.6775L14.4173 2.25313L13.438 2.45567ZM11.2095 2.8544H13.9277V1.8544H11.2095V2.8544ZM9.44633 14.0637L11.7004 2.44966L10.7187 2.25914L8.46464 13.8731L9.44633 14.0637ZM6.21059 2.44966L8.46464 14.0637L9.44633 13.8731L7.19227 2.25914L6.21059 2.44966ZM3.98331 2.8544H6.70143V1.8544H3.98331V2.8544ZM1.48964 16.88L4.47294 2.45567L3.49367 2.25313L0.510363 16.6775L1.48964 16.88ZM26.8553 16.8883H24.8665V17.8883H26.8553V16.8883ZM26.3553 2.3544V17.3883H27.3553V2.3544H26.3553ZM24.8665 2.8544H26.8553V1.8544H24.8665V2.8544ZM25.3665 8.68623V2.3544H24.3665V8.68623H25.3665ZM20.5572 9.18623H24.8665V8.18623H20.5572V9.18623ZM20.0572 2.3544V8.68623H21.0572V2.3544H20.0572ZM18.5684 2.8544H20.5572V1.8544H18.5684V2.8544ZM19.0684 17.3883V2.3544H18.0684V17.3883H19.0684ZM20.5572 16.8883H18.5684V17.8883H20.5572V16.8883ZM20.0572 10.447V17.3883H21.0572V10.447H20.0572ZM24.8665 9.94695H20.5572V10.947H24.8665V9.94695ZM25.3665 17.3883V10.447H24.3665V17.3883H25.3665ZM26.8553 30.5H1.66296V31.5H26.8553V30.5ZM26.3553 19.4199V31H27.3553V19.4199H26.3553ZM1.66296 19.9199H26.8553V18.9199H1.66296V19.9199ZM2.16296 31V19.4199H1.16296V31H2.16296ZM3.15183 21.1806V29.2393H4.15183V21.1806H3.15183ZM24.8665 20.6806H3.65183V21.6806H24.8665V20.6806ZM25.3665 29.2393V21.1806H24.3665V29.2393H25.3665ZM3.65183 29.7393H24.8665V28.7393H3.65183V29.7393Z" fill="black" mask="url(#path-3-outside-1_25_937)"/>
<mask id="path-5-outside-2_25_937" maskUnits="userSpaceOnUse" x="92.0111" y="1.23831" width="4" height="31" fill="black">
<rect fill="white" x="92.0111" y="1.23831" width="4" height="31"/>
<path fill-rule="evenodd" clip-rule="evenodd" d="M95 30.8839H93.0111V2.23831H95V30.8839Z"/>
</mask>
<path fill-rule="evenodd" clip-rule="evenodd" d="M95 30.8839H93.0111V2.23831H95V30.8839Z" fill="black"/>
<path d="M93.0111 30.8839H92.2111V31.6839H93.0111V30.8839ZM95 30.8839V31.6839H95.8V30.8839H95ZM93.0111 2.23831V1.43831H92.2111V2.23831H93.0111ZM95 2.23831H95.8V1.43831H95V2.23831ZM93.0111 31.6839H95V30.0839H93.0111V31.6839ZM92.2111 2.23831V30.8839H93.8111V2.23831H92.2111ZM95 1.43831H93.0111V3.03831H95V1.43831ZM95.8 30.8839V2.23831H94.2V30.8839H95.8Z" fill="black" mask="url(#path-5-outside-2_25_937)"/>
</svg>
